Coordinates
version=1
nRows=35
nColumns=38
inDegrees=no

Units are S.I. units (second, meters, Newtons, ...)
If the header above contains a line with 'inDegrees', this indicates whether rotational values are in degrees (yes) or radians (no).

endheader
time	pelvis_tilt	pelvis_list	pelvis_rotation	pelvis_tx	pelvis_ty	pelvis_tz	hip_flexion_r	hip_adduction_r	hip_rotation_r	knee_angle_r	ankle_angle_r	subtalar_angle_r	mtp_angle_r	hip_flexion_l	hip_adduction_l	hip_rotation_l	knee_angle_l	ankle_angle_l	subtalar_angle_l	mtp_angle_l	lumbar_extension	lumbar_bending	lumbar_rotation	arm_flex_r	arm_add_r	arm_rot_r	elbow_flex_r	pro_sup_r	wrist_flex_r	wrist_dev_r	arm_flex_l	arm_add_l	arm_rot_l	elbow_flex_l	pro_sup_l	wrist_flex_l	wrist_dev_l
5	0.461024	1.52178	1.08291	0.715152	0.0880165	1.01408	0.161577	-0.0750019	-0.588301	0.151296	-0.00782244	0	0	0.0692339	-0.104121	-0.204153	0	-0.106808	0	0	-0.265872	0.0314637	0.109945	0.451021	-0.498699	0.13021	1.00833	0.790983	0	0	0.501697	-0.327587	0.162375	0.92383	0.892064	0	0
5.01	0.482904	1.52313	1.05987	0.715509	0.0883851	1.01427	0.158415	-0.0734291	-0.586089	0.148539	-0.00872397	0	0	0.0665915	-0.104829	-0.206517	0	-0.106625	0	0	-0.267607	0.0314387	0.111728	0.448808	-0.498231	0.12764	1.00963	0.793304	0	0	0.501428	-0.327719	0.162877	0.924265	0.892322	0	0
5.02	0.461823	1.50892	1.07573	0.716679	0.0879775	1.01317	0.165917	-0.0618347	-0.563292	0.129733	-0.0196215	0	0	0.0807901	-0.113271	-0.208056	0	-0.105902	0	0	-0.252542	0.0364255	0.118506	0.443445	-0.49765	0.124631	1.01068	0.793901	0	0	0.497421	-0.326863	0.161509	0.924377	0.893442	0	0
5.03	0.496226	1.52408	1.04694	0.715707	0.0887309	1.0144	0.156324	-0.0729844	-0.586592	0.147841	-0.0080726	0	0	0.0648699	-0.105077	-0.206508	0	-0.106234	0	0	-0.269804	0.0318969	0.112394	0.445826	-0.498761	0.125222	1.01299	0.792938	0	0	0.501238	-0.327985	0.163581	0.926614	0.892761	0	0
5.04	0.478043	1.52283	1.06608	0.715631	0.0888419	1.01425	0.158349	-0.073849	-0.588538	0.149738	-0.00660335	0	0	0.066579	-0.104822	-0.204735	0	-0.105641	0	0	-0.268469	0.0323185	0.111562	0.444153	-0.499174	0.124777	1.01475	0.792721	0	0	0.499936	-0.328187	0.162709	0.928851	0.893507	0	0
5.05	0.464176	1.52137	1.08093	0.715573	0.0889557	1.01409	0.160011	-0.0740739	-0.589336	0.150293	-0.00613406	0	0	0.068272	-0.10491	-0.202975	0	-0.10523	0	0	-0.267009	0.0330006	0.110609	0.442508	-0.499238	0.123933	1.01637	0.793031	0	0	0.498413	-0.32849	0.16173	0.931215	0.893365	0	0
5.06	0.447349	1.51989	1.09854	0.715495	0.0890994	1.01393	0.161789	-0.0744776	-0.589926	0.150824	-0.00564613	0	0	0.0700163	-0.104746	-0.201678	0	-0.105313	0	0	-0.26532	0.0335919	0.1098	0.440585	-0.499217	0.122666	1.01821	0.793135	0	0	0.496817	-0.328731	0.160717	0.933189	0.894108	0	0
5.07	0.433577	1.51878	1.11281	0.715446	0.0893437	1.01382	0.162855	-0.0748312	-0.590252	0.150999	-0.00514339	0	0	0.0711823	-0.10444	-0.201267	0	-0.105536	0	0	-0.263833	0.0341434	0.109349	0.438182	-0.499217	0.121143	1.02035	0.793037	0	0	0.495255	-0.328875	0.159774	0.934556	0.895277	0	0
5.08	0.422874	1.51789	1.12394	0.715428	0.0896847	1.01378	0.163276	-0.0748963	-0.590161	0.150451	-0.00496341	0	0	0.0718698	-0.104263	-0.201304	0	-0.1054	0	0	-0.262483	0.034684	0.109104	0.435456	-0.499139	0.119422	1.02266	0.792977	0	0	0.493925	-0.329151	0.159322	0.935387	0.897492	0	0
5.09	0.41477	1.51709	1.13241	0.715419	0.0900694	1.01378	0.163366	-0.0747568	-0.589911	0.149566	-0.00502147	0	0	0.0722772	-0.104204	-0.201214	0	-0.104902	0	0	-0.261207	0.0352369	0.108959	0.432902	-0.49923	0.118205	1.02466	0.792827	0	0	0.492731	-0.32943	0.159173	0.93601	0.900783	0	0
5.1	0.408872	1.51638	1.13864	0.715389	0.0904943	1.01378	0.163322	-0.0745787	-0.58969	0.148756	-0.00501926	0	0	0.0725106	-0.104211	-0.201304	0	-0.104709	0	0	-0.260004	0.0357948	0.10878	0.43073	-0.49947	0.117699	1.02614	0.792537	0	0	0.491428	-0.32953	0.158949	0.937025	0.902084	0	0
5.11	0.407024	1.51584	1.14077	0.715355	0.090959	1.0138	0.163139	-0.0743633	-0.589535	0.148313	-0.00476754	0	0	0.0724942	-0.104297	-0.201304	0	-0.104377	0	0	-0.259097	0.0364531	0.108686	0.428818	-0.499802	0.117521	1.02728	0.792003	0	0	0.489972	-0.329696	0.158366	0.938422	0.903384	0	0
5.12	0.47136	1.52054	1.0762	0.715697	0.0920513	1.01451	0.153579	-0.0715551	-0.589405	0.14325	-0.00608165	0	0	0.0645217	-0.105694	-0.204487	0	-0.103342	0	0	-0.264802	0.0370672	0.109547	0.42716	-0.499061	0.11662	1.02761	0.792077	0	0	0.489005	-0.330862	0.158102	0.940167	0.906243	0	0
5.13	0.470133	1.52054	1.07829	0.715582	0.0925271	1.01455	0.153337	-0.0721099	-0.590569	0.144331	-0.00510344	0	0	0.0641784	-0.105518	-0.203259	0	-0.102566	0	0	-0.264719	0.0375824	0.109127	0.425967	-0.499327	0.116441	1.02779	0.791872	0	0	0.488023	-0.331254	0.157751	0.941968	0.908881	0	0
5.14	0.466644	1.52064	1.08261	0.715457	0.0930153	1.01457	0.153371	-0.0730624	-0.591983	0.146232	-0.00368414	0	0	0.0638528	-0.105208	-0.202075	0	-0.101657	0	0	-0.264621	0.0378758	0.108817	0.425024	-0.499455	0.116247	1.02748	0.791275	0	0	0.487519	-0.331658	0.158281	0.943531	0.909683	0	0
5.15	0.463069	1.52079	1.08702	0.715328	0.093514	1.01457	0.153561	-0.0741918	-0.593664	0.148664	-0.00196731	0	0	0.063588	-0.104875	-0.200926	0	-0.100622	0	0	-0.264467	0.0380769	0.108625	0.424285	-0.499623	0.116263	1.02678	0.790391	0	0	0.48765	-0.331895	0.159632	0.944387	0.907955	0	0
5.16	0.458945	1.52095	1.09199	0.715189	0.0939859	1.01456	0.154098	-0.0756492	-0.595851	0.152001	0.000265878	0	0	0.0634271	-0.104477	-0.199727	0	-0.0994624	0	0	-0.264373	0.0381922	0.108665	0.423715	-0.500075	0.116754	1.02601	0.787853	0	0	0.488483	-0.332055	0.16182	0.944482	0.904646	0	0
5.17	0.45216	1.52102	1.09941	0.715065	0.0944682	1.01454	0.154853	-0.0771206	-0.59766	0.155285	0.00244597	0	0	0.0634429	-0.104019	-0.19871	0	-0.0980942	0	0	-0.264249	0.0381273	0.10886	0.42348	-0.500287	0.11711	1.02485	0.786941	0	0	0.489502	-0.332072	0.163343	0.944064	0.905286	0	0
5.18	0.444697	1.52118	1.10725	0.714984	0.0949553	1.01454	0.155578	-0.0785458	-0.598866	0.158611	0.00461308	0	0	0.0632607	-0.103567	-0.197858	0	-0.0962774	0	0	-0.264421	0.0378244	0.109235	0.423558	-0.500372	0.117522	1.02356	0.78613	0	0	0.490693	-0.332076	0.164317	0.943433	0.906945	0	0
5.19	0.436005	1.52135	1.1163	0.714864	0.0954336	1.01452	0.156654	-0.0803358	-0.600283	0.162718	0.00694526	0	0	0.0632302	-0.10297	-0.196981	0	-0.0941949	0	0	-0.264906	0.0374376	0.109408	0.424026	-0.500387	0.11807	1.02247	0.785127	0	0	0.492189	-0.331984	0.165078	0.942629	0.907347	0	0
5.2	0.424451	1.52135	1.12827	0.714718	0.0958877	1.01446	0.158167	-0.0824239	-0.601996	0.1673	0.00938914	0	0	0.0636278	-0.102196	-0.196254	0	-0.0919326	0	0	-0.265502	0.0370099	0.109251	0.424929	-0.500184	0.118719	1.02142	0.784172	0	0	0.493891	-0.332011	0.165882	0.94166	0.906835	0	0
5.21	0.413662	1.52127	1.13927	0.714596	0.096345	1.01442	0.15966	-0.084315	-0.603559	0.171609	0.0116418	0	0	0.0639706	-0.101648	-0.196103	0	-0.0895938	0	0	-0.266542	0.0365249	0.109215	0.426117	-0.499815	0.11909	1.02052	0.783877	0	0	0.496059	-0.332382	0.167272	0.940711	0.905545	0	0
5.22	0.401686	1.52098	1.15133	0.714505	0.0967701	1.01438	0.161167	-0.085969	-0.604888	0.175213	0.0136379	0	0	0.0644951	-0.101204	-0.196319	0	-0.0868441	0	0	-0.267915	0.0359558	0.109361	0.427435	-0.499318	0.118828	1.01981	0.786017	0	0	0.498752	-0.333012	0.169307	0.939886	0.902421	0	0
5.23	0.386167	1.52048	1.16708	0.714393	0.0971467	1.01432	0.162771	-0.0876596	-0.606326	0.178356	0.0155377	0	0	0.0654638	-0.100561	-0.196579	0	-0.0840799	0	0	-0.269555	0.0352397	0.109471	0.428886	-0.498543	0.117446	1.01912	0.793196	0	0	0.501944	-0.333962	0.172312	0.939493	0.895488	0	0
5.24	0.379247	1.52107	1.17448	0.714253	0.0971838	1.01439	0.163682	-0.0896151	-0.608127	0.182414	0.0177684	0	0	0.0657206	-0.0998828	-0.197526	0	-0.0824309	0	0	-0.275219	0.0342126	0.109862	0.432171	-0.497472	0.112113	1.01984	0.812118	0	0	0.508586	-0.335907	0.178868	0.940354	0.879669	0	0
5.25	0.3458	1.51894	1.20893	0.713975	0.0977302	1.01416	0.16622	-0.0914529	-0.609896	0.183576	0.0188648	0	0	0.0686276	-0.0988099	-0.196765	0	-0.079389	0	0	-0.274129	0.0337474	0.108274	0.433762	-0.498462	0.119059	1.01941	0.781254	0	0	0.509433	-0.335276	0.175523	0.938213	0.896316	0	0
5.26	0.316053	1.5176	1.24008	0.713664	0.0979331	1.01402	0.168836	-0.0941143	-0.612419	0.186743	0.0210215	0	0	0.0712715	-0.0975541	-0.196397	0	-0.0771297	0	0	-0.2768	0.0327644	0.106823	0.436938	-0.498099	0.118961	1.01953	0.780575	0	0	0.513739	-0.336346	0.177323	0.937824	0.895171	0	0
5.27	0.282611	1.51597	1.27511	0.713322	0.0980842	1.01385	0.17204	-0.0972118	-0.615161	0.190535	0.0236326	0	0	0.0744209	-0.0961981	-0.195545	0	-0.0748524	0	0	-0.279874	0.0315796	0.104951	0.440752	-0.497716	0.119147	1.01965	0.779708	0	0	0.518399	-0.337805	0.178922	0.93767	0.894984	0	0
5.28	0.248379	1.51418	1.31106	0.712976	0.0982083	1.01365	0.175712	-0.10072	-0.618249	0.195017	0.0267368	0	0	0.0778867	-0.0948137	-0.194255	0	-0.0724381	0	0	-0.283554	0.0301319	0.102791	0.445173	-0.49739	0.119874	1.02	0.778727	0	0	0.523433	-0.339598	0.180705	0.938426	0.893723	0	0
5.29	0.214167	1.51214	1.3471	0.712614	0.0982878	1.01341	0.179917	-0.104631	-0.621656	0.200253	0.0304533	0	0	0.0818686	-0.0933694	-0.192617	0	-0.070118	0	0	-0.287759	0.0284945	0.100324	0.450536	-0.497202	0.121287	1.02019	0.77783	0	0	0.528657	-0.341621	0.182439	0.940069	0.892102	0	0
5.3	0.188286	1.50973	1.37472	0.712533	0.0981591	1.01314	0.184205	-0.108034	-0.624068	0.205057	0.0337663	0	0	0.0862649	-0.0923961	-0.191414	0	-0.0675787	0	0	-0.292611	0.02699	0.0978002	0.456673	-0.496811	0.122715	1.02001	0.778009	0	0	0.534337	-0.343716	0.18358	0.941857	0.893223	0	0
5.31	0.161439	1.50755	1.40271	0.712099	0.0983555	1.01284	0.188799	-0.111866	-0.627603	0.211121	0.0382656	0	0	0.0903875	-0.0915336	-0.189956	0	-0.0654127	0	0	-0.29793	0.0251089	0.0957514	0.463228	-0.496223	0.124112	1.01957	0.777039	0	0	0.540119	-0.346022	0.184883	0.943762	0.891575	0	0
5.32	0.14217	1.50436	1.42081	0.71172	0.0987114	1.01254	0.192677	-0.117139	-0.635425	0.216164	0.0458153	0	0	0.0901465	-0.0907112	-0.189717	0	-0.0638244	0	0	-0.302708	0.0235664	0.0951536	0.470393	-0.495456	0.125364	1.01875	0.777298	0	0	0.545583	-0.348285	0.186204	0.945296	0.889335	0	0
5.33	0.130023	1.50286	1.43397	0.711519	0.0986633	1.01232	0.196119	-0.120178	-0.638464	0.221781	0.0500381	0	0	0.0983139	-0.0916012	-0.190062	0.000494077	-0.0605527	0	0	-0.309948	0.0216895	0.0937191	0.477639	-0.494988	0.127051	1.01817	0.777659	0	0	0.552584	-0.350356	0.188192	0.946907	0.887715	0	0
5.34	0.120923	1.50118	1.44407	0.711286	0.0984671	1.01205	0.200419	-0.123577	-0.642236	0.229002	0.0545914	0	0	0.108215	-0.0927939	-0.193409	0.0160045	-0.0538155	0	0	-0.318275	0.0198574	0.0926086	0.4856	-0.495205	0.129214	1.01778	0.777577	0	0	0.56072	-0.352444	0.190615	0.948613	0.886445	0	0
